<?xml version="1.0" standalone="no"?>
<!DOCTYPE svg PUBLIC "-//W3C//DTD SVG 20010904//EN"
 "http://www.w3.org/TR/2001/REC-SVG-20010904/DTD/svg10.dtd">
<svg version="1.0" xmlns="http://www.w3.org/2000/svg"
 width="204.000000pt" height="192.000000pt" viewBox="0 0 204.000000 192.000000"
 preserveAspectRatio="xMidYMid meet">
<metadata>
Created by potrace 1.10, written by Peter Selinger 2001-2011
</metadata>
<g transform="translate(0.000000,192.000000) scale(0.100000,-0.100000)"
fill="#000000" stroke="none">
<path d="M290 870 l0 -140 93 0 93 0 -4 35 -4 35 -57 -3 c-51 -2 -56 0 -59 21
-3 20 0 22 47 22 50 0 51 1 51 30 0 29 -1 30 -50 30 -47 0 -50 1 -50 26 0 26
0 26 59 19 l59 -7 4 36 4 36 -93 0 -93 0 0 -140z"/>
<path d="M573 990 c-160 -72 -66 -296 105 -251 57 16 71 36 44 64 -17 17 -24
19 -34 9 -22 -22 -86 -15 -113 13 -32 31 -32 55 0 89 26 28 70 35 106 15 16
-8 25 -7 40 7 27 25 24 33 -23 54 -54 24 -72 24 -125 0z"/>
<path d="M60 970 c0 -28 3 -30 35 -30 l35 0 0 -102 0 -103 35 0 35 0 0 103 0
102 35 0 c32 0 35 2 35 30 l0 30 -105 0 -105 0 0 -30z"/>
<path d="M770 867 l0 -133 33 4 c32 4 32 4 29 53 l-4 49 52 0 52 0 -4 -49 c-3
-49 -3 -49 30 -53 l32 -4 0 133 0 133 -32 0 -33 0 3 -50 4 -50 -52 0 -52 0 4
50 3 50 -32 0 -33 0 0 -133z"/>
<path d="M1032 865 c2 -69 7 -125 12 -125 6 0 9 45 7 105 -1 58 0 105 2 105 3
0 44 -49 92 -110 48 -60 92 -110 96 -110 5 0 9 59 9 130 0 99 -3 130 -13 130
-10 0 -12 -25 -9 -105 3 -58 0 -105 -4 -105 -5 1 -45 48 -89 105 -44 58 -85
105 -93 105 -10 0 -12 -27 -10 -125z"/>
<path d="M1307 983 c-2 -4 -4 -61 -3 -126 l1 -118 85 -2 c50 -1 86 2 87 8 2 6
-28 11 -73 11 l-77 2 0 48 0 49 62 0 c44 0 61 3 61 13 0 10 -16 13 -62 11
l-61 -3 0 45 0 44 74 1 c41 0 75 5 77 10 3 11 -165 18 -171 7z"/>
<path d="M1535 965 c-14 -13 -25 -31 -25 -38 0 -28 35 -55 91 -71 64 -18 84
-36 74 -66 -13 -41 -86 -52 -128 -20 -30 24 -37 25 -37 6 0 -22 68 -49 108
-42 42 6 82 41 82 71 0 31 -30 54 -91 70 -65 17 -85 39 -65 69 17 27 79 33
111 12 14 -9 26 -12 30 -6 9 14 -49 40 -90 40 -25 0 -43 -8 -60 -25z"/>
<path d="M1720 980 c0 -5 20 -10 45 -10 l45 0 0 -120 c0 -73 4 -120 10 -120 6
0 10 47 10 120 l0 120 45 0 c25 0 45 5 45 10 0 6 -40 10 -100 10 -60 0 -100
-4 -100 -10z"/>
</g>
</svg>
